<svg width="13" height="13" viewBox="0 0 13 13" fill="none" xmlns="http://www.w3.org/2000/svg">
<path d="M11.8494 9.01879L8.89688 7.69566C8.76311 7.63834 8.61715 7.61529 8.47222 7.62861C8.32729 7.64192 8.18797 7.69118 8.06688 7.77191C8.05459 7.7798 8.0429 7.78857 8.03188 7.79816L6.48876 9.11066C6.47275 9.11939 6.45492 9.12427 6.4367 9.12492C6.41848 9.12558 6.40035 9.12198 6.38376 9.11441C5.39188 8.63566 4.36438 7.61441 3.88376 6.63629C3.87575 6.61994 3.87159 6.60198 3.87159 6.58379C3.87159 6.56559 3.87575 6.54763 3.88376 6.53129L5.20063 4.96879C5.21008 4.95722 5.21885 4.94512 5.22688 4.93254C5.3065 4.81098 5.35459 4.6715 5.36681 4.5267C5.37903 4.38191 5.355 4.23635 5.29688 4.10316L3.98313 1.15566C3.90853 0.981667 3.7795 0.836562 3.61542 0.742126C3.45134 0.647691 3.26106 0.609017 3.07313 0.631911C2.2564 0.739284 1.5067 1.14037 0.964146 1.76022C0.421589 2.38008 0.123295 3.17628 0.125007 4.00004C0.125007 8.89379 4.10626 12.875 9.00001 12.875C9.82373 12.8766 10.6199 12.5783 11.2397 12.0357C11.8595 11.4932 12.2606 10.7436 12.3681 9.92691C12.391 9.73986 12.3528 9.55044 12.2594 9.38682C12.1659 9.22319 12.0221 9.09412 11.8494 9.01879ZM9.00001 12.125C4.52001 12.125 0.875007 8.48004 0.875007 4.00004C0.872918 3.35874 1.10438 2.73862 1.52616 2.25554C1.94794 1.77246 2.53117 1.45947 3.16688 1.37504H3.18126C3.20644 1.37551 3.2309 1.38358 3.25142 1.39819C3.27194 1.4128 3.28757 1.43327 3.29626 1.45691L4.61501 4.40129C4.62253 4.41766 4.62642 4.43546 4.62642 4.45347C4.62642 4.47149 4.62253 4.48929 4.61501 4.50566L3.29563 6.07191C3.28579 6.08309 3.27681 6.095 3.26876 6.10754C3.1862 6.23357 3.13758 6.37879 3.12762 6.52913C3.11765 6.67947 3.14668 6.82983 3.21188 6.96566C3.76626 8.10066 4.91001 9.23566 6.05751 9.79004C6.19413 9.85488 6.34523 9.8832 6.49606 9.87225C6.64689 9.8613 6.79231 9.81144 6.91813 9.72754C6.93001 9.71941 6.94188 9.71066 6.95313 9.70129L8.49563 8.38879C8.51087 8.3806 8.52769 8.3758 8.54495 8.37472C8.56221 8.37365 8.5795 8.37631 8.59563 8.38254L11.5488 9.70566C11.5729 9.71593 11.5932 9.73353 11.6067 9.75596C11.6203 9.77839 11.6265 9.80453 11.6244 9.83066C11.5404 10.4667 11.2277 11.0503 10.7447 11.4726C10.2617 11.8948 9.64153 12.1268 9.00001 12.125Z" fill="#969696"/>
</svg>
